<?xml version="1.0" encoding="UTF-8"?>
<svg height="600" width="800" xmlns="http://www.w3.org/2000/svg" xmlns:xlink="http://www.w3.org/1999/xlink">
    <g id="Notes" font-family="'LucidaGrande', 'Lucida Grande', sans-serif" font-size="13">
        <rect fill="white" height="600.0" width="800.0" x="0.0" y="0.0" />
        <g font-size="13">
            <text x="18.0" y="176.0">Small</text>
            <text x="18.0" y="376.0">Medium</text>
            <text x="18.0" y="576.0">Large</text>
        </g>
        <g font-size="9">
            <text x="250.0" y="30.0">Ultralight</text>
            <text x="450.0" y="30.0">Regular</text>
            <text x="650.0" y="30.0">Black</text>
            <text id="template-version" fill="#505050" text-anchor="end" x="785.0" y="575.0">Template v.3.0</text>
            <a href="https://wangchujiang.com/#/app">
                <text fill="#505050" text-anchor="end" x="785.0" y="590.0">https://wangchujiang.com/#/app</text>
            </a>
        </g>
    </g>
    <g id="Guides" stroke="rgb(39, 170, 225)" stroke-width="0.5">
        <path id="Capline-S" d="M18,76 l800,0" />
        <path id="H-reference" d="M85,145.755 L87.685,145.755 L113.369,79.287 L114.052,79.287 L114.052,76 L112.148,76 L85,145.755 Z M95.693,121.536 L130.996,121.536 L130.263,119.313 L96.474,119.313 L95.693,121.536 Z M139.15,145.755 L141.787,145.755 L114.638,76 L113.466,76 L113.466,79.287 L139.15,145.755 Z" stroke="none" />
        <path id="Baseline-S" d="M18,146 l800,0" />
        <path id="left-margin-Ultralight-S" d="M221,56 l0,110" />
        <path id="right-margin-Ultralight-S" d="M309,56 l0,110" />
        <path id="left-margin-Regular-S" d="M421,56 l0,110" />
        <path id="right-margin-Regular-S" d="M509,56 l0,110" />
        <path id="left-margin-Black-S" d="M621,56 l0,110" />
        <path id="right-margin-Black-S" d="M709,56 l0,110" />
        <path id="Capline-M" d="M18,276 l800,0" />
        <path id="Baseline-M" d="M18,346 l800,0" />
        <path id="Capline-L" d="M18,476 l800,0" />
        <path id="Baseline-L" d="M18,546 l800,0" />
    </g>
    <g id="Symbols">
        <g id="Ultralight-S">
            <path d="M262.785,108.088 C261.328,109.49 257.319,112.73 256.491,116.267 C256.073,118.05 254.323,119.199 254.051,117.388 C253.717,115.169 254.006,113.2 254.418,111.984 C255.019,110.211 257.026,106.41 261.464,100.709 C265.466,95.568 270.342,84.452 272.293,78.448 C272.61,77.474 273.505,76.787 274.53,76.787 C275.784,76.787 276.8,77.79 276.8,79.044 L276.8,136.991 C276.8,142.13 267.929,145.994 263.206,145.994 C258.632,145.994 249.426,140.865 254.054,134.164 C258.066,128.356 265.567,128.105 270.21,129.471 C271.398,129.82 272.806,128.99 272.814,127.752 C272.865,119.829 272.917,105.971 272.861,99.24 C272.85,97.857 271.356,97.331 270.509,98.423 C267.976,101.687 264.362,106.57 262.785,108.088 Z" />
        </g>
        <g id="Regular-S">
            <path d="M462.785,108.088 C461.328,109.49 457.319,112.73 456.49,116.267 C456.073,118.05 454.323,119.199 454.051,117.388 C453.717,115.169 454.006,113.2 454.418,111.984 C455.019,110.211 457.026,106.41 461.464,100.709 C465.466,95.568 470.342,84.452 472.293,78.448 C472.61,77.474 473.505,76.787 474.53,76.787 C475.784,76.787 476.8,77.79 476.8,79.044 L476.8,136.991 C476.8,142.13 467.929,145.994 463.206,145.994 C458.632,145.994 449.426,140.865 454.054,134.164 C458.066,128.356 465.567,128.105 470.21,129.471 C471.398,129.82 472.806,128.99 472.814,127.752 C472.865,119.829 472.917,105.971 472.861,99.24 C472.85,97.857 471.356,97.331 470.509,98.423 C467.976,101.687 464.362,106.57 462.785,108.088 Z" />
        </g>
        <g id="Black-S">
            <path d="M662.785,108.088 C661.328,109.49 657.32,112.73 656.491,116.267 C656.073,118.05 654.323,119.199 654.051,117.388 C653.717,115.169 654.006,113.2 654.418,111.984 C655.019,110.211 657.026,106.41 661.464,100.709 C665.466,95.568 670.342,84.452 672.293,78.448 C672.61,77.474 673.505,76.787 674.53,76.787 C675.784,76.787 676.8,77.79 676.8,79.044 L676.8,136.991 C676.8,142.13 667.929,145.994 663.206,145.994 C658.632,145.994 649.426,140.865 654.054,134.164 C658.066,128.356 665.567,128.105 670.21,129.471 C671.398,129.82 672.806,128.99 672.814,127.752 C672.865,119.829 672.917,105.971 672.861,99.24 C672.85,97.857 671.356,97.331 670.509,98.423 C667.976,101.687 664.362,106.57 662.785,108.088 Z" />
        </g>
    </g>
</svg>