<?xml version="1.0" encoding="UTF-8"?>
<svg height="600" width="800" xmlns="http://www.w3.org/2000/svg" xmlns:xlink="http://www.w3.org/1999/xlink">
    <g id="Notes" font-family="'LucidaGrande', 'Lucida Grande', sans-serif" font-size="13">
        <rect fill="white" height="600.0" width="800.0" x="0.0" y="0.0" />
        <g font-size="13">
            <text x="18.0" y="176.0">Small</text>
            <text x="18.0" y="376.0">Medium</text>
            <text x="18.0" y="576.0">Large</text>
        </g>
        <g font-size="9">
            <text x="250.0" y="30.0">Ultralight</text>
            <text x="450.0" y="30.0">Regular</text>
            <text x="650.0" y="30.0">Black</text>
            <text id="template-version" fill="#505050" text-anchor="end" x="785.0" y="575.0">Template v.3.0</text>
            <a href="https://wangchujiang.com/#/app">
                <text fill="#505050" text-anchor="end" x="785.0" y="590.0">https://wangchujiang.com/#/app</text>
            </a>
        </g>
    </g>
    <g id="Guides" stroke="rgb(39, 170, 225)" stroke-width="0.5">
        <path id="Capline-S" d="M18,76 l800,0" />
        <path id="H-reference" d="M85,145.755 L87.685,145.755 L113.369,79.287 L114.052,79.287 L114.052,76 L112.148,76 L85,145.755 Z M95.693,121.536 L130.996,121.536 L130.263,119.313 L96.474,119.313 L95.693,121.536 Z M139.15,145.755 L141.787,145.755 L114.638,76 L113.466,76 L113.466,79.287 L139.15,145.755 Z" stroke="none" />
        <path id="Baseline-S" d="M18,146 l800,0" />
        <path id="left-margin-Ultralight-S" d="M221,56 l0,110" />
        <path id="right-margin-Ultralight-S" d="M309,56 l0,110" />
        <path id="left-margin-Regular-S" d="M421,56 l0,110" />
        <path id="right-margin-Regular-S" d="M509,56 l0,110" />
        <path id="left-margin-Black-S" d="M621,56 l0,110" />
        <path id="right-margin-Black-S" d="M709,56 l0,110" />
        <path id="Capline-M" d="M18,276 l800,0" />
        <path id="Baseline-M" d="M18,346 l800,0" />
        <path id="Capline-L" d="M18,476 l800,0" />
        <path id="Baseline-L" d="M18,546 l800,0" />
    </g>
    <g id="Symbols">
        <g id="Ultralight-S">
            <path d="M268.435,141.165 C269.928,139.89 271.12,137.176 268.786,134.967 C265.726,132.071 261.125,135.446 262.299,138.906 C263.001,140.977 265.118,146.668 270.524,145.895 C275.93,145.123 278.981,140.219 277.784,136.628 C277.466,135.675 276.224,132.215 274.539,127.56 C274.427,127.251 274.519,126.907 274.759,126.683 C278.219,123.441 278.704,119.529 278.413,117.673 C278.037,113.901 275.464,106.718 268.179,108.161 C267.812,108.233 267.439,108.037 267.311,107.685 C266.456,105.341 265.625,103.066 264.855,100.955 C264.748,100.664 264.822,100.337 265.043,100.119 C266.292,98.886 267.356,97.8 267.983,96.877 C270.098,93.758 274.462,82.58 268.472,77.733 C262.483,72.885 256.78,79.177 258.044,86.457 C258.734,90.429 259.591,94.167 260.682,97.956 C260.761,98.228 260.689,98.521 260.494,98.726 C257.556,101.824 253.957,106.086 252.671,109.062 C250.818,113.349 250.867,116.906 253.753,122.452 C256.502,127.736 263.553,132.524 270.921,129.256 C271.358,129.062 271.88,129.261 272.045,129.71 C273.083,132.541 274.028,135.116 274.755,137.086 C275.457,138.991 274.628,141.321 272.365,142.43 C270.581,143.305 269.25,143.081 268.358,142.645 C267.808,142.376 267.969,141.562 268.435,141.165 Z M260.195,118.398 C260.269,119.135 260.65,120.584 261.578,120.481 C262.505,120.378 262.672,119.666 262.64,119.322 C262.626,119.24 262.61,119.149 262.592,119.051 C262.351,117.717 261.875,115.082 264.368,114.126 C264.738,113.984 265.134,114.205 265.271,114.577 C266.493,117.894 267.916,121.773 269.294,125.533 C269.429,125.903 269.273,126.32 268.91,126.474 C265.763,127.806 259.755,128.045 255.843,120.481 C252.576,114.166 256.208,108.62 260.255,104.231 C260.657,103.795 261.375,103.956 261.57,104.516 C261.972,105.676 262.399,106.853 262.851,108.055 C262.985,108.411 263.132,108.802 263.289,109.225 C263.422,109.582 263.278,109.98 262.969,110.201 C259.702,112.544 259.635,116.352 260.195,118.398 Z M270.681,113.008 C271.762,113.348 272.851,114.185 273.806,115.912 C275.242,118.479 275.03,120.677 274.21,122.36 C273.936,122.923 273.168,122.816 272.955,122.228 C271.995,119.585 270.967,116.761 269.931,113.915 C269.739,113.389 270.147,112.839 270.681,113.008 Z M263.629,92.787 C262.256,88.945 260.481,81.734 263.701,80.633 C267.461,79.347 267.603,89.724 264.705,94.02 C264.52,94.295 264.115,94.222 264.009,93.907 C263.986,93.838 263.962,93.767 263.938,93.696 C263.794,93.271 263.652,92.849 263.629,92.787 Z" />
        </g>
        <g id="Regular-S">
            <path d="M468.435,141.165 C469.928,139.89 471.12,137.176 468.786,134.967 C465.726,132.071 461.125,135.446 462.299,138.906 C463.001,140.977 465.118,146.668 470.524,145.895 C475.93,145.123 478.981,140.219 477.784,136.628 C477.466,135.675 476.224,132.215 474.539,127.56 C474.427,127.251 474.52,126.907 474.759,126.683 C478.219,123.441 478.704,119.529 478.413,117.673 C478.037,113.901 475.464,106.718 468.179,108.161 C467.812,108.233 467.439,108.037 467.311,107.685 C466.456,105.341 465.625,103.066 464.855,100.955 C464.748,100.664 464.822,100.337 465.043,100.119 C466.292,98.886 467.356,97.8 467.983,96.877 C470.098,93.758 474.462,82.58 468.472,77.733 C462.483,72.885 456.78,79.177 458.044,86.457 C458.734,90.429 459.591,94.167 460.682,97.956 C460.761,98.228 460.689,98.521 460.494,98.726 C457.556,101.824 453.957,106.086 452.671,109.062 C450.818,113.349 450.867,116.906 453.753,122.452 C456.502,127.736 463.553,132.524 470.921,129.256 C471.358,129.062 471.88,129.261 472.045,129.71 C473.083,132.541 474.028,135.116 474.755,137.086 C475.457,138.991 474.628,141.321 472.365,142.43 C470.581,143.305 469.25,143.081 468.358,142.645 C467.808,142.376 467.969,141.562 468.435,141.165 Z M460.195,118.398 C460.269,119.135 460.65,120.584 461.578,120.481 C462.505,120.378 462.672,119.666 462.64,119.322 C462.626,119.24 462.61,119.149 462.592,119.051 C462.351,117.717 461.875,115.082 464.368,114.126 C464.738,113.984 465.134,114.205 465.271,114.577 C466.493,117.894 467.916,121.773 469.294,125.533 C469.429,125.903 469.273,126.32 468.91,126.474 C465.763,127.806 459.755,128.045 455.843,120.481 C452.576,114.166 456.208,108.62 460.255,104.231 C460.657,103.795 461.375,103.956 461.57,104.516 C461.973,105.676 462.399,106.853 462.851,108.055 C462.985,108.411 463.132,108.802 463.289,109.225 C463.422,109.582 463.278,109.98 462.969,110.201 C459.702,112.544 459.635,116.352 460.195,118.398 Z M470.681,113.008 C471.762,113.348 472.851,114.185 473.806,115.912 C475.242,118.479 475.03,120.677 474.21,122.36 C473.936,122.923 473.168,122.816 472.955,122.228 C471.995,119.585 470.967,116.761 469.931,113.915 C469.739,113.389 470.147,112.839 470.681,113.008 Z M463.629,92.787 C462.256,88.945 460.481,81.734 463.701,80.633 C467.461,79.347 467.603,89.724 464.706,94.02 C464.52,94.295 464.115,94.222 464.009,93.907 C463.986,93.838 463.962,93.767 463.938,93.696 C463.794,93.271 463.652,92.849 463.629,92.787 Z" />
        </g>
        <g id="Black-S">
            <path d="M668.435,141.165 C669.928,139.89 671.12,137.176 668.786,134.967 C665.726,132.071 661.125,135.446 662.299,138.906 C663.001,140.977 665.118,146.668 670.524,145.895 C675.93,145.123 678.981,140.219 677.784,136.628 C677.466,135.675 676.224,132.215 674.539,127.56 C674.427,127.251 674.519,126.907 674.759,126.683 C678.219,123.441 678.704,119.529 678.413,117.673 C678.037,113.901 675.464,106.718 668.179,108.161 C667.812,108.233 667.439,108.037 667.311,107.685 C666.456,105.341 665.625,103.066 664.855,100.955 C664.748,100.664 664.822,100.337 665.043,100.119 C666.292,98.886 667.356,97.8 667.983,96.877 C670.098,93.758 674.462,82.58 668.472,77.733 C662.483,72.885 656.78,79.177 658.044,86.457 C658.734,90.429 659.591,94.167 660.682,97.956 C660.761,98.228 660.689,98.521 660.494,98.726 C657.556,101.824 653.957,106.086 652.671,109.062 C650.818,113.349 650.867,116.906 653.753,122.452 C656.502,127.736 663.553,132.524 670.921,129.256 C671.358,129.062 671.88,129.261 672.045,129.71 C673.083,132.541 674.028,135.116 674.755,137.086 C675.457,138.991 674.628,141.321 672.365,142.43 C670.581,143.305 669.25,143.081 668.358,142.645 C667.808,142.376 667.969,141.562 668.435,141.165 Z M660.195,118.398 C660.269,119.135 660.65,120.584 661.578,120.481 C662.505,120.378 662.672,119.666 662.64,119.322 C662.626,119.24 662.61,119.149 662.592,119.051 C662.351,117.717 661.875,115.082 664.368,114.126 C664.738,113.984 665.134,114.205 665.271,114.577 C666.493,117.894 667.916,121.773 669.294,125.533 C669.429,125.903 669.273,126.32 668.91,126.474 C665.763,127.806 659.755,128.045 655.843,120.481 C652.576,114.166 656.208,108.62 660.255,104.231 C660.657,103.795 661.375,103.956 661.57,104.516 C661.972,105.676 662.399,106.853 662.851,108.055 C662.985,108.411 663.132,108.802 663.289,109.225 C663.422,109.582 663.278,109.98 662.969,110.201 C659.702,112.544 659.635,116.352 660.195,118.398 Z M670.681,113.008 C671.762,113.348 672.851,114.185 673.806,115.912 C675.242,118.479 675.03,120.677 674.21,122.36 C673.936,122.923 673.168,122.816 672.955,122.228 C671.995,119.585 670.967,116.761 669.931,113.915 C669.739,113.389 670.147,112.839 670.681,113.008 Z M663.629,92.787 C662.256,88.945 660.481,81.734 663.701,80.633 C667.461,79.347 667.603,89.724 664.706,94.02 C664.52,94.295 664.115,94.222 664.009,93.907 C663.986,93.838 663.962,93.767 663.938,93.696 C663.794,93.271 663.652,92.849 663.629,92.787 Z" />
        </g>
    </g>
</svg>