<?xml version="1.0" encoding="UTF-8"?>
<svg height="600" width="800" xmlns="http://www.w3.org/2000/svg" xmlns:xlink="http://www.w3.org/1999/xlink">
    <g id="Notes" font-family="'LucidaGrande', 'Lucida Grande', sans-serif" font-size="13">
        <rect fill="white" height="600.0" width="800.0" x="0.0" y="0.0" />
        <g font-size="13">
            <text x="18.0" y="176.0">Small</text>
            <text x="18.0" y="376.0">Medium</text>
            <text x="18.0" y="576.0">Large</text>
        </g>
        <g font-size="9">
            <text x="250.0" y="30.0">Ultralight</text>
            <text x="450.0" y="30.0">Regular</text>
            <text x="650.0" y="30.0">Black</text>
            <text id="template-version" fill="#505050" text-anchor="end" x="785.0" y="575.0">Template v.3.0</text>
            <a href="https://wangchujiang.com/#/app">
                <text fill="#505050" text-anchor="end" x="785.0" y="590.0">https://wangchujiang.com/#/app</text>
            </a>
        </g>
    </g>
    <g id="Guides" stroke="rgb(39, 170, 225)" stroke-width="0.5">
        <path id="Capline-S" d="M18,76 l800,0" />
        <path id="H-reference" d="M85,145.755 L87.685,145.755 L113.369,79.287 L114.052,79.287 L114.052,76 L112.148,76 L85,145.755 Z M95.693,121.536 L130.996,121.536 L130.263,119.313 L96.474,119.313 L95.693,121.536 Z M139.15,145.755 L141.787,145.755 L114.638,76 L113.466,76 L113.466,79.287 L139.15,145.755 Z" stroke="none" />
        <path id="Baseline-S" d="M18,146 l800,0" />
        <path id="left-margin-Ultralight-S" d="M221,56 l0,110" />
        <path id="right-margin-Ultralight-S" d="M309,56 l0,110" />
        <path id="left-margin-Regular-S" d="M421,56 l0,110" />
        <path id="right-margin-Regular-S" d="M509,56 l0,110" />
        <path id="left-margin-Black-S" d="M621,56 l0,110" />
        <path id="right-margin-Black-S" d="M709,56 l0,110" />
        <path id="Capline-M" d="M18,276 l800,0" />
        <path id="Baseline-M" d="M18,346 l800,0" />
        <path id="Capline-L" d="M18,476 l800,0" />
        <path id="Baseline-L" d="M18,546 l800,0" />
    </g>
    <g id="Symbols">
        <g id="Ultralight-S">
            <path d="M273.13,95.159 C273.28,97.76 273.215,117.257 273.151,127.273 C273.143,128.511 271.734,129.341 270.547,128.991 C265.904,127.625 258.403,127.876 254.391,133.685 C249.762,140.386 258.969,145.515 263.542,145.515 C268.266,145.515 277.137,141.651 277.137,136.512 L277.137,78.301 C277.137,77.194 276.24,76.308 275.134,76.308 C274.027,76.308 273.13,77.205 273.13,78.311 L273.13,95.159 Z M265.13,139.925 C260.187,139.925 256.179,138.496 256.179,136.733 C256.179,134.97 260.187,133.541 265.13,133.541 C270.074,133.541 274.082,134.97 274.082,136.733 C274.082,138.496 270.074,139.925 265.13,139.925 Z" />
        </g>
        <g id="Regular-S">
            <path d="M473.13,95.159 C473.28,97.76 473.215,117.257 473.151,127.273 C473.142,128.511 471.734,129.341 470.547,128.991 C465.904,127.625 458.403,127.876 454.391,133.685 C449.762,140.386 458.969,145.515 463.542,145.515 C468.266,145.515 477.137,141.651 477.137,136.512 L477.137,78.301 C477.137,77.194 476.24,76.308 475.134,76.308 C474.027,76.308 473.13,77.205 473.13,78.311 L473.13,95.159 Z M465.13,139.925 C460.187,139.925 456.179,138.496 456.179,136.733 C456.179,134.97 460.187,133.541 465.13,133.541 C470.074,133.541 474.082,134.97 474.082,136.733 C474.082,138.496 470.074,139.925 465.13,139.925 Z" />
        </g>
        <g id="Black-S">
            <path d="M673.13,95.159 C673.28,97.76 673.215,117.257 673.151,127.273 C673.143,128.511 671.734,129.341 670.547,128.991 C665.904,127.625 658.403,127.876 654.391,133.685 C649.762,140.386 658.969,145.515 663.542,145.515 C668.266,145.515 677.137,141.651 677.137,136.512 L677.137,78.301 C677.137,77.194 676.24,76.308 675.134,76.308 C674.027,76.308 673.13,77.205 673.13,78.311 L673.13,95.159 Z M665.13,139.925 C660.187,139.925 656.179,138.496 656.179,136.733 C656.179,134.97 660.187,133.541 665.13,133.541 C670.074,133.541 674.082,134.97 674.082,136.733 C674.082,138.496 670.074,139.925 665.13,139.925 Z" />
        </g>
    </g>
</svg>