<?xml version="1.0" encoding="UTF-8"?>
<svg height="600" width="800" xmlns="http://www.w3.org/2000/svg" xmlns:xlink="http://www.w3.org/1999/xlink">
    <g id="Notes" font-family="'LucidaGrande', 'Lucida Grande', sans-serif" font-size="13">
        <rect fill="white" height="600.0" width="800.0" x="0.0" y="0.0" />
        <g font-size="13">
            <text x="18.0" y="176.0">Small</text>
            <text x="18.0" y="376.0">Medium</text>
            <text x="18.0" y="576.0">Large</text>
        </g>
        <g font-size="9">
            <text x="250.0" y="30.0">Ultralight</text>
            <text x="450.0" y="30.0">Regular</text>
            <text x="650.0" y="30.0">Black</text>
            <text id="template-version" fill="#505050" text-anchor="end" x="785.0" y="575.0">Template v.3.0</text>
            <a href="https://wangchujiang.com/#/app">
                <text fill="#505050" text-anchor="end" x="785.0" y="590.0">https://wangchujiang.com/#/app</text>
            </a>
        </g>
    </g>
    <g id="Guides" stroke="rgb(39, 170, 225)" stroke-width="0.5">
        <path id="Capline-S" d="M18,76 l800,0" />
        <path id="H-reference" d="M85,145.755 L87.685,145.755 L113.369,79.287 L114.052,79.287 L114.052,76 L112.148,76 L85,145.755 Z M95.693,121.536 L130.996,121.536 L130.263,119.313 L96.474,119.313 L95.693,121.536 Z M139.15,145.755 L141.787,145.755 L114.638,76 L113.466,76 L113.466,79.287 L139.15,145.755 Z" stroke="none" />
        <path id="Baseline-S" d="M18,146 l800,0" />
        <path id="left-margin-Ultralight-S" d="M211,56 l0,110" />
        <path id="right-margin-Ultralight-S" d="M319,56 l0,110" />
        <path id="left-margin-Regular-S" d="M411,56 l0,110" />
        <path id="right-margin-Regular-S" d="M519,56 l0,110" />
        <path id="left-margin-Black-S" d="M611,56 l0,110" />
        <path id="right-margin-Black-S" d="M719,56 l0,110" />
        <path id="Capline-M" d="M18,276 l800,0" />
        <path id="Baseline-M" d="M18,346 l800,0" />
        <path id="Capline-L" d="M18,476 l800,0" />
        <path id="Baseline-L" d="M18,546 l800,0" />
    </g>
    <g id="Symbols">
        <g id="Ultralight-S">
            <path d="M221.149,131.316 L275.961,144.35 C280.209,131.241 288.869,104.433 289.525,102.08 C292.603,104.953 297.665,106.047 302.795,105.363 C307.925,104.679 312.781,96.471 303.616,91.889 C296.284,88.223 290.347,92.687 288.294,95.377 L277.282,129.234 L256.421,124.036 C259.065,115.737 264.533,98.523 265.244,96.061 C265.928,97.292 269.28,99.549 274.204,100.439 C279.129,101.328 291.509,93.542 280.907,86.964 C272.426,81.702 265.974,86.801 263.808,90.008 L253.069,123.284 L229.198,117.333 C232.017,108.637 237.736,90.998 238.059,90.008 C238.239,90.089 238.411,90.179 238.652,90.306 L238.652,90.306 L238.652,90.306 C239.423,90.711 240.911,91.493 245.714,93.542 C252.024,96.234 264.559,86.307 253.286,80.25 C244.267,75.404 238.423,80.25 236.628,83.278 L221.149,131.316 Z M276.191,132.533 L275.384,135.357 L254.338,130.18 L255.414,127.221 L276.191,132.533 Z M251.129,129.447 L227.054,123.816 L228.163,120.668 L251.952,126.527 L251.129,129.447 Z" />
        </g>
        <g id="Regular-S">
            <path d="M421.149,131.316 L475.961,144.35 C480.209,131.241 488.869,104.433 489.525,102.08 C492.603,104.953 497.665,106.047 502.795,105.363 C507.925,104.679 512.781,96.471 503.616,91.889 C496.284,88.223 490.347,92.687 488.294,95.377 L477.282,129.234 L456.421,124.036 C459.065,115.737 464.533,98.523 465.244,96.061 C465.928,97.292 469.28,99.549 474.204,100.439 C479.129,101.328 491.509,93.542 480.907,86.964 C472.426,81.702 465.974,86.801 463.808,90.008 L453.069,123.284 L429.198,117.333 C432.017,108.637 437.736,90.998 438.059,90.008 C438.239,90.089 438.411,90.179 438.652,90.306 L438.652,90.306 L438.652,90.306 C439.423,90.711 440.911,91.493 445.714,93.542 C452.024,96.234 464.559,86.307 453.286,80.25 C444.267,75.404 438.423,80.25 436.628,83.278 L421.149,131.316 Z M476.191,132.533 L475.384,135.357 L454.338,130.18 L455.414,127.221 L476.191,132.533 Z M451.129,129.447 L427.054,123.816 L428.163,120.668 L451.952,126.527 L451.129,129.447 Z" />
        </g>
        <g id="Black-S">
            <path d="M621.149,131.316 L675.961,144.35 C680.209,131.241 688.869,104.433 689.525,102.08 C692.603,104.953 697.665,106.047 702.795,105.363 C707.925,104.679 712.781,96.471 703.616,91.889 C696.284,88.223 690.347,92.687 688.294,95.377 L677.282,129.234 L656.421,124.036 C659.065,115.737 664.533,98.523 665.244,96.061 C665.928,97.292 669.28,99.549 674.204,100.439 C679.129,101.328 691.509,93.542 680.907,86.964 C672.426,81.702 665.974,86.801 663.808,90.008 L653.069,123.284 L629.198,117.333 C632.017,108.637 637.736,90.998 638.059,90.008 C638.239,90.089 638.411,90.179 638.652,90.306 L638.652,90.306 L638.652,90.306 C639.423,90.711 640.911,91.493 645.714,93.542 C652.024,96.234 664.559,86.307 653.286,80.25 C644.267,75.404 638.423,80.25 636.628,83.278 L621.149,131.316 Z M676.191,132.533 L675.384,135.357 L654.338,130.18 L655.414,127.221 L676.191,132.533 Z M651.129,129.447 L627.054,123.816 L628.163,120.668 L651.952,126.527 L651.129,129.447 Z" />
        </g>
    </g>
</svg>