<?xml version="1.0" encoding="UTF-8"?>
<svg height="600" width="800" xmlns="http://www.w3.org/2000/svg" xmlns:xlink="http://www.w3.org/1999/xlink">
    <g id="Notes" font-family="'LucidaGrande', 'Lucida Grande', sans-serif" font-size="13">
        <rect fill="white" height="600.0" width="800.0" x="0.0" y="0.0" />
        <g font-size="13">
            <text x="18.0" y="176.0">Small</text>
            <text x="18.0" y="376.0">Medium</text>
            <text x="18.0" y="576.0">Large</text>
        </g>
        <g font-size="9">
            <text x="250.0" y="30.0">Ultralight</text>
            <text x="450.0" y="30.0">Regular</text>
            <text x="650.0" y="30.0">Black</text>
            <text id="template-version" fill="#505050" text-anchor="end" x="785.0" y="575.0">Template v.3.0</text>
            <a href="https://wangchujiang.com/#/app">
                <text fill="#505050" text-anchor="end" x="785.0" y="590.0">https://wangchujiang.com/#/app</text>
            </a>
        </g>
    </g>
    <g id="Guides" stroke="rgb(39, 170, 225)" stroke-width="0.5">
        <path id="Capline-S" d="M18,76 l800,0" />
        <path id="H-reference" d="M85,145.755 L87.685,145.755 L113.369,79.287 L114.052,79.287 L114.052,76 L112.148,76 L85,145.755 Z M95.693,121.536 L130.996,121.536 L130.263,119.313 L96.474,119.313 L95.693,121.536 Z M139.15,145.755 L141.787,145.755 L114.638,76 L113.466,76 L113.466,79.287 L139.15,145.755 Z" stroke="none" />
        <path id="Baseline-S" d="M18,146 l800,0" />
        <path id="left-margin-Ultralight-S" d="M221,56 l0,110" />
        <path id="right-margin-Ultralight-S" d="M309,56 l0,110" />
        <path id="left-margin-Regular-S" d="M421,56 l0,110" />
        <path id="right-margin-Regular-S" d="M509,56 l0,110" />
        <path id="left-margin-Black-S" d="M621,56 l0,110" />
        <path id="right-margin-Black-S" d="M709,56 l0,110" />
        <path id="Capline-M" d="M18,276 l800,0" />
        <path id="Baseline-M" d="M18,346 l800,0" />
        <path id="Capline-L" d="M18,476 l800,0" />
        <path id="Baseline-L" d="M18,546 l800,0" />
    </g>
    <g id="Symbols">
        <g id="Ultralight-S">
            <path d="M277.261,93.709 L283.953,116.404 C284.238,117.372 283.231,118.415 282.222,118.457 C276.47,118.697 266.857,124.214 270.624,132.13 C273.913,139.043 291.761,131.75 289.156,122.924 C288.526,120.788 285.321,109.569 282.189,98.604 C279.804,90.252 277.46,82.047 276.328,78.115 C275.953,76.812 274.606,76.122 273.332,76.584 C268.755,78.246 258.447,82.024 251.23,84.669 C248.934,85.511 246.951,86.237 245.565,86.745 C244.382,87.178 243.747,88.431 244.091,89.642 C246.152,96.897 252.86,120.29 254.851,127.234 C255.106,128.124 254.297,129.001 253.372,129.022 C247.556,129.158 237.834,133.701 241.327,142.491 C244.535,150.563 262.664,141.528 260.095,133.435 C258.787,129.313 253.994,112.551 251.257,102.916 C250.91,101.692 251.565,100.413 252.759,99.973 L274.083,92.113 C275.405,91.626 276.863,92.358 277.261,93.709 Z M275.586,86.893 C275.768,87.509 275.44,88.16 274.837,88.381 L250.968,97.11 C250.315,97.349 249.594,96.993 249.388,96.329 L249.167,95.62 C248.973,94.999 249.301,94.337 249.911,94.114 L273.795,85.396 C274.455,85.155 275.181,85.521 275.38,86.195 L275.586,86.893 Z" />
        </g>
        <g id="Regular-S">
            <path d="M477.261,93.709 L483.953,116.404 C484.238,117.372 483.231,118.415 482.222,118.457 C476.47,118.697 466.857,124.214 470.624,132.13 C473.913,139.043 491.761,131.75 489.156,122.924 C488.526,120.788 485.321,109.569 482.189,98.604 C479.804,90.252 477.46,82.047 476.328,78.115 C475.953,76.812 474.606,76.122 473.332,76.584 C468.755,78.246 458.447,82.024 451.23,84.669 C448.934,85.511 446.951,86.237 445.565,86.745 C444.382,87.178 443.747,88.431 444.091,89.642 C446.152,96.897 452.86,120.29 454.851,127.234 C455.106,128.124 454.297,129.001 453.372,129.022 C447.556,129.158 437.834,133.701 441.327,142.491 C444.535,150.563 462.664,141.528 460.095,133.435 C458.787,129.313 453.994,112.551 451.257,102.916 C450.91,101.692 451.565,100.413 452.759,99.973 L474.083,92.113 C475.405,91.626 476.863,92.358 477.261,93.709 Z M475.586,86.893 C475.768,87.509 475.44,88.16 474.837,88.381 L450.968,97.11 C450.315,97.349 449.594,96.993 449.388,96.329 L449.167,95.62 C448.973,94.999 449.301,94.337 449.911,94.114 L473.795,85.396 C474.455,85.155 475.181,85.521 475.38,86.195 L475.586,86.893 Z" />
        </g>
        <g id="Black-S">
            <path d="M677.261,93.709 L683.953,116.404 C684.238,117.372 683.231,118.415 682.222,118.457 C676.47,118.697 666.857,124.214 670.624,132.13 C673.913,139.043 691.761,131.75 689.156,122.924 C688.526,120.788 685.321,109.569 682.189,98.604 C679.804,90.252 677.46,82.047 676.328,78.115 C675.953,76.812 674.606,76.122 673.331,76.584 C668.755,78.246 658.447,82.024 651.229,84.669 C648.934,85.511 646.951,86.237 645.565,86.745 C644.382,87.178 643.747,88.431 644.091,89.642 C646.152,96.897 652.86,120.29 654.851,127.234 C655.106,128.124 654.297,129.001 653.372,129.022 C647.556,129.158 637.834,133.701 641.327,142.491 C644.535,150.563 662.664,141.528 660.095,133.435 C658.787,129.313 653.994,112.551 651.257,102.916 C650.91,101.692 651.565,100.413 652.759,99.973 L674.083,92.113 C675.405,91.626 676.862,92.358 677.261,93.709 Z M675.586,86.893 C675.768,87.509 675.44,88.16 674.837,88.381 L650.968,97.11 C650.315,97.349 649.594,96.993 649.388,96.329 L649.167,95.62 C648.973,94.999 649.301,94.337 649.911,94.114 L673.795,85.396 C674.455,85.155 675.181,85.521 675.38,86.195 L675.586,86.893 Z" />
        </g>
    </g>
</svg>